<svg width="17" height="20" viewBox="0 0 17 20" fill="none" xmlns="http://www.w3.org/2000/svg">
<g opacity="0.5">
<mask id="path-1-outside-1_1335_238" maskUnits="userSpaceOnUse" x="0.361328" y="0.0908203" width="16" height="20" fill="black">
<rect fill="white" x="0.361328" y="0.0908203" width="16" height="20"/>
<path fill-rule="evenodd" clip-rule="evenodd" d="M8.4991 1.09082L9.68731 1.73955C9.76822 1.77861 9.84081 1.81418 9.9091 1.84763C10.3105 2.04424 10.5629 2.16789 11.4773 2.50158C12.5401 2.88941 13.5954 3.06581 14.2065 3.15548C14.2268 3.15845 14.2633 3.16351 14.3116 3.1702C14.3326 3.17311 14.3558 3.17633 14.3809 3.17982C14.4628 3.1912 14.5625 3.2052 14.6632 3.22002C14.8561 3.24836 15.0769 3.28293 15.1681 3.30899C15.2057 3.31975 15.2335 3.32726 15.2559 3.33333C15.2602 3.33448 15.2643 3.33559 15.2682 3.33665C15.2897 3.34248 15.3157 3.34955 15.339 3.35841C15.3882 3.37709 15.4259 3.40512 15.4541 3.42607C15.4587 3.42955 15.4632 3.43283 15.4673 3.43585C15.5425 3.4903 15.5839 3.56152 15.6062 3.61883C15.6283 3.67539 15.6369 3.73131 15.6369 3.77395L15.6369 3.78191L15.6362 3.78985L15.6212 3.78867C15.6362 3.78985 15.6362 3.78985 15.6362 3.78985L15.6361 3.79137L15.6357 3.79624C15.6353 3.8006 15.6348 3.80714 15.6341 3.81581C15.6327 3.83313 15.6307 3.85892 15.6281 3.89252C15.623 3.95972 15.6158 4.05819 15.6075 4.18279C15.5909 4.43202 15.5698 4.78566 15.5521 5.20274C15.5167 6.03776 15.4949 7.1235 15.5485 8.13386C15.6577 10.1951 15.3909 11.3176 14.9369 12.2755C14.4864 13.2259 13.5233 14.5032 12.3227 15.5042C11.1399 16.4905 10.2878 17.3331 9.47542 18.1365C9.1971 18.4117 8.92343 18.6824 8.6427 18.9526L8.4991 19.0908L8.35551 18.9526C8.07481 18.6824 7.80117 18.4118 7.52288 18.1366C6.71042 17.3331 5.85836 16.4905 4.67547 15.5043C3.47489 14.5033 2.5118 13.2259 2.06131 12.2755C1.6073 11.3176 1.34049 10.1951 1.44974 8.1339C1.5033 7.12354 1.4815 6.0378 1.44608 5.20278C1.42839 4.78569 1.40733 4.43206 1.39071 4.18283C1.3824 4.05823 1.37521 3.95976 1.37009 3.89256C1.36754 3.85895 1.3655 3.83317 1.36411 3.81584C1.36342 3.80718 1.36288 3.80063 1.36253 3.79628L1.362 3.78989C1.362 3.78989 1.362 3.78989 1.37753 3.78867L1.362 3.78989L1.36133 3.78195L1.36133 3.77398C1.36132 3.73135 1.36995 3.67542 1.39198 3.61887C1.4143 3.56156 1.45568 3.49034 1.5309 3.43589C1.53506 3.43287 1.53948 3.42959 1.54416 3.42611C1.57234 3.40516 1.61003 3.37713 1.65919 3.35845C1.68252 3.34958 1.70789 3.3427 1.72937 3.33686C1.73328 3.3358 1.73801 3.33452 1.74227 3.33337C1.76473 3.3273 1.79247 3.31979 1.83016 3.30903C1.92135 3.28297 2.14215 3.2484 2.33499 3.22005C2.43575 3.20524 2.53546 3.19124 2.61728 3.17986C2.64238 3.17637 2.66562 3.17315 2.68663 3.17024C2.73491 3.16355 2.77142 3.15849 2.79173 3.15551C3.40278 3.06585 4.45809 2.88945 5.52088 2.50162C6.43532 2.16792 6.68773 2.04428 7.08912 1.84767C7.1574 1.81422 7.23 1.77866 7.3109 1.73959L8.4991 1.09082ZM8.49911 1.54246L7.50204 2.08687L7.49739 2.08911C7.41545 2.12867 7.34168 2.16479 7.27208 2.19887C6.8639 2.39876 6.59875 2.52861 5.66464 2.86948C4.56106 3.27219 3.47181 3.45344 2.85282 3.54427C2.83074 3.54751 2.79134 3.55297 2.74171 3.55985C2.72114 3.56269 2.69882 3.56579 2.67524 3.56906C2.59379 3.58039 2.49534 3.59422 2.39619 3.6088C2.18921 3.63922 2.00317 3.66964 1.94555 3.6861C1.90481 3.69774 1.87414 3.70604 1.85161 3.71213C1.8475 3.71324 1.84366 3.71428 1.84008 3.71525C1.82816 3.71848 1.82045 3.72062 1.81466 3.72234C1.81409 3.72251 1.81356 3.72267 1.81307 3.72282C1.80965 3.72521 1.80578 3.72805 1.79978 3.73244C1.79433 3.73644 1.78712 3.74172 1.7769 3.74912C1.77599 3.75048 1.77447 3.75316 1.77283 3.75736C1.77103 3.76199 1.7697 3.76692 1.76889 3.77126C1.76884 3.77155 1.76894 3.771 1.76889 3.77126C1.76919 3.77499 1.76941 3.78027 1.76982 3.78545C1.77125 3.80328 1.77333 3.82959 1.77593 3.86373C1.78112 3.93202 1.7884 4.03167 1.7968 4.15754C1.81358 4.40926 1.83482 4.766 1.85266 5.18667C1.88832 6.02716 1.9106 7.12642 1.85614 8.15401C1.74935 10.1687 2.01096 11.225 2.43128 12.1117C2.85513 13.0059 3.78062 14.2388 4.94131 15.2066C6.13849 16.2047 7.00694 17.0636 7.822 17.8696C8.04987 18.095 8.27356 18.3162 8.4991 18.5352C8.72467 18.3162 8.94839 18.0949 9.17629 17.8695C9.99133 17.0635 10.8598 16.2047 12.0569 15.2065C13.2176 14.2388 14.1431 13.0059 14.5669 12.1117C14.9873 11.2249 15.2489 10.1687 15.1421 8.15397C15.0876 7.12638 15.1099 6.02712 15.1456 5.18663C15.1634 4.76596 15.1846 4.40922 15.2014 4.1575C15.2098 4.03163 15.2171 3.93198 15.2223 3.86369C15.2249 3.82955 15.227 3.80324 15.2284 3.78541C15.2288 3.78024 15.2292 3.77578 15.2295 3.77205C15.2294 3.77178 15.2295 3.77233 15.2295 3.77205C15.2287 3.76771 15.2272 3.76195 15.2254 3.75733C15.2238 3.75312 15.2222 3.75045 15.2213 3.74908C15.2111 3.74169 15.2039 3.73641 15.1985 3.73242C15.1925 3.72802 15.1886 3.72517 15.1851 3.72278C15.1847 3.72263 15.1841 3.72247 15.1836 3.7223C15.1778 3.72059 15.1701 3.71844 15.1581 3.71521C15.1546 3.71424 15.1507 3.7132 15.1466 3.71209C15.1241 3.70599 15.0934 3.6977 15.0527 3.68606C14.995 3.6696 14.809 3.63919 14.602 3.60876C14.5029 3.59418 14.4044 3.58035 14.323 3.56903C14.2994 3.56575 14.2771 3.56266 14.2565 3.55981C14.2069 3.55293 14.1675 3.54747 14.1454 3.54423C13.5264 3.45341 12.4372 3.27216 11.3336 2.86944C10.3995 2.52857 10.1343 2.39872 9.72614 2.19883C9.65654 2.16475 9.58277 2.12863 9.50083 2.08908L9.49618 2.08683L8.49911 1.54246Z"/>
</mask>
<path fill-rule="evenodd" clip-rule="evenodd" d="M8.4991 1.09082L9.68731 1.73955C9.76822 1.77861 9.84081 1.81418 9.9091 1.84763C10.3105 2.04424 10.5629 2.16789 11.4773 2.50158C12.5401 2.88941 13.5954 3.06581 14.2065 3.15548C14.2268 3.15845 14.2633 3.16351 14.3116 3.1702C14.3326 3.17311 14.3558 3.17633 14.3809 3.17982C14.4628 3.1912 14.5625 3.2052 14.6632 3.22002C14.8561 3.24836 15.0769 3.28293 15.1681 3.30899C15.2057 3.31975 15.2335 3.32726 15.2559 3.33333C15.2602 3.33448 15.2643 3.33559 15.2682 3.33665C15.2897 3.34248 15.3157 3.34955 15.339 3.35841C15.3882 3.37709 15.4259 3.40512 15.4541 3.42607C15.4587 3.42955 15.4632 3.43283 15.4673 3.43585C15.5425 3.4903 15.5839 3.56152 15.6062 3.61883C15.6283 3.67539 15.6369 3.73131 15.6369 3.77395L15.6369 3.78191L15.6362 3.78985L15.6212 3.78867C15.6362 3.78985 15.6362 3.78985 15.6362 3.78985L15.6361 3.79137L15.6357 3.79624C15.6353 3.8006 15.6348 3.80714 15.6341 3.81581C15.6327 3.83313 15.6307 3.85892 15.6281 3.89252C15.623 3.95972 15.6158 4.05819 15.6075 4.18279C15.5909 4.43202 15.5698 4.78566 15.5521 5.20274C15.5167 6.03776 15.4949 7.1235 15.5485 8.13386C15.6577 10.1951 15.3909 11.3176 14.9369 12.2755C14.4864 13.2259 13.5233 14.5032 12.3227 15.5042C11.1399 16.4905 10.2878 17.3331 9.47542 18.1365C9.1971 18.4117 8.92343 18.6824 8.6427 18.9526L8.4991 19.0908L8.35551 18.9526C8.07481 18.6824 7.80117 18.4118 7.52288 18.1366C6.71042 17.3331 5.85836 16.4905 4.67547 15.5043C3.47489 14.5033 2.5118 13.2259 2.06131 12.2755C1.6073 11.3176 1.34049 10.1951 1.44974 8.1339C1.5033 7.12354 1.4815 6.0378 1.44608 5.20278C1.42839 4.78569 1.40733 4.43206 1.39071 4.18283C1.3824 4.05823 1.37521 3.95976 1.37009 3.89256C1.36754 3.85895 1.3655 3.83317 1.36411 3.81584C1.36342 3.80718 1.36288 3.80063 1.36253 3.79628L1.362 3.78989C1.362 3.78989 1.362 3.78989 1.37753 3.78867L1.362 3.78989L1.36133 3.78195L1.36133 3.77398C1.36132 3.73135 1.36995 3.67542 1.39198 3.61887C1.4143 3.56156 1.45568 3.49034 1.5309 3.43589C1.53506 3.43287 1.53948 3.42959 1.54416 3.42611C1.57234 3.40516 1.61003 3.37713 1.65919 3.35845C1.68252 3.34958 1.70789 3.3427 1.72937 3.33686C1.73328 3.3358 1.73801 3.33452 1.74227 3.33337C1.76473 3.3273 1.79247 3.31979 1.83016 3.30903C1.92135 3.28297 2.14215 3.2484 2.33499 3.22005C2.43575 3.20524 2.53546 3.19124 2.61728 3.17986C2.64238 3.17637 2.66562 3.17315 2.68663 3.17024C2.73491 3.16355 2.77142 3.15849 2.79173 3.15551C3.40278 3.06585 4.45809 2.88945 5.52088 2.50162C6.43532 2.16792 6.68773 2.04428 7.08912 1.84767C7.1574 1.81422 7.23 1.77866 7.3109 1.73959L8.4991 1.09082ZM8.49911 1.54246L7.50204 2.08687L7.49739 2.08911C7.41545 2.12867 7.34168 2.16479 7.27208 2.19887C6.8639 2.39876 6.59875 2.52861 5.66464 2.86948C4.56106 3.27219 3.47181 3.45344 2.85282 3.54427C2.83074 3.54751 2.79134 3.55297 2.74171 3.55985C2.72114 3.56269 2.69882 3.56579 2.67524 3.56906C2.59379 3.58039 2.49534 3.59422 2.39619 3.6088C2.18921 3.63922 2.00317 3.66964 1.94555 3.6861C1.90481 3.69774 1.87414 3.70604 1.85161 3.71213C1.8475 3.71324 1.84366 3.71428 1.84008 3.71525C1.82816 3.71848 1.82045 3.72062 1.81466 3.72234C1.81409 3.72251 1.81356 3.72267 1.81307 3.72282C1.80965 3.72521 1.80578 3.72805 1.79978 3.73244C1.79433 3.73644 1.78712 3.74172 1.7769 3.74912C1.77599 3.75048 1.77447 3.75316 1.77283 3.75736C1.77103 3.76199 1.7697 3.76692 1.76889 3.77126C1.76884 3.77155 1.76894 3.771 1.76889 3.77126C1.76919 3.77499 1.76941 3.78027 1.76982 3.78545C1.77125 3.80328 1.77333 3.82959 1.77593 3.86373C1.78112 3.93202 1.7884 4.03167 1.7968 4.15754C1.81358 4.40926 1.83482 4.766 1.85266 5.18667C1.88832 6.02716 1.9106 7.12642 1.85614 8.15401C1.74935 10.1687 2.01096 11.225 2.43128 12.1117C2.85513 13.0059 3.78062 14.2388 4.94131 15.2066C6.13849 16.2047 7.00694 17.0636 7.822 17.8696C8.04987 18.095 8.27356 18.3162 8.4991 18.5352C8.72467 18.3162 8.94839 18.0949 9.17629 17.8695C9.99133 17.0635 10.8598 16.2047 12.0569 15.2065C13.2176 14.2388 14.1431 13.0059 14.5669 12.1117C14.9873 11.2249 15.2489 10.1687 15.1421 8.15397C15.0876 7.12638 15.1099 6.02712 15.1456 5.18663C15.1634 4.76596 15.1846 4.40922 15.2014 4.1575C15.2098 4.03163 15.2171 3.93198 15.2223 3.86369C15.2249 3.82955 15.227 3.80324 15.2284 3.78541C15.2288 3.78024 15.2292 3.77578 15.2295 3.77205C15.2294 3.77178 15.2295 3.77233 15.2295 3.77205C15.2287 3.76771 15.2272 3.76195 15.2254 3.75733C15.2238 3.75312 15.2222 3.75045 15.2213 3.74908C15.2111 3.74169 15.2039 3.73641 15.1985 3.73242C15.1925 3.72802 15.1886 3.72517 15.1851 3.72278C15.1847 3.72263 15.1841 3.72247 15.1836 3.7223C15.1778 3.72059 15.1701 3.71844 15.1581 3.71521C15.1546 3.71424 15.1507 3.7132 15.1466 3.71209C15.1241 3.70599 15.0934 3.6977 15.0527 3.68606C14.995 3.6696 14.809 3.63919 14.602 3.60876C14.5029 3.59418 14.4044 3.58035 14.323 3.56903C14.2994 3.56575 14.2771 3.56266 14.2565 3.55981C14.2069 3.55293 14.1675 3.54747 14.1454 3.54423C13.5264 3.45341 12.4372 3.27216 11.3336 2.86944C10.3995 2.52857 10.1343 2.39872 9.72614 2.19883C9.65654 2.16475 9.58277 2.12863 9.50083 2.08908L9.49618 2.08683L8.49911 1.54246Z" fill="#01052A"/>
<path d="M8.4991 1.09082L8.6189 0.871394L8.49909 0.805984L8.37929 0.871398L8.4991 1.09082ZM9.68731 1.73955L9.56736 1.95925L9.5786 1.96467L9.68731 1.73955ZM9.9091 1.84763L9.79912 2.07214L9.79912 2.07214L9.9091 1.84763ZM11.4773 2.50158L11.3916 2.73643L11.3916 2.73643L11.4773 2.50158ZM14.2065 3.15548L14.2428 2.90812L14.2428 2.90812L14.2065 3.15548ZM14.3116 3.1702L14.3459 2.92256L14.3459 2.92256L14.3116 3.1702ZM14.3809 3.17982L14.3465 3.42744L14.3465 3.42744L14.3809 3.17982ZM14.6632 3.22002L14.6269 3.46736L14.6269 3.46736L14.6632 3.22002ZM15.1681 3.30899L15.0994 3.54937L15.0994 3.54937L15.1681 3.30899ZM15.2559 3.33333L15.3212 3.092L15.3212 3.092L15.2559 3.33333ZM15.2682 3.33665L15.3337 3.09538L15.3337 3.09538L15.2682 3.33665ZM15.339 3.35841L15.2502 3.5921L15.2502 3.5921L15.339 3.35841ZM15.4541 3.42607L15.3049 3.62668L15.3049 3.62669L15.4541 3.42607ZM15.4673 3.43585L15.3207 3.63835L15.3207 3.63836L15.4673 3.43585ZM15.6062 3.61883L15.8392 3.52811L15.8392 3.52811L15.6062 3.61883ZM15.6369 3.77395L15.3869 3.77392L15.3869 3.77392L15.6369 3.77395ZM15.6369 3.78191L15.886 3.80287L15.8869 3.79242L15.8869 3.78194L15.6369 3.78191ZM15.6212 3.78867L15.6408 3.53944L15.6016 4.0379L15.6212 3.78867ZM15.6361 3.79137L15.387 3.77059L15.3869 3.77078L15.6361 3.79137ZM15.6357 3.79624L15.3865 3.77565L15.3865 3.77577L15.6357 3.79624ZM15.6341 3.81581L15.3849 3.7958L15.3849 3.79582L15.6341 3.81581ZM15.6281 3.89252L15.8774 3.91148L15.8774 3.91148L15.6281 3.89252ZM15.6075 4.18279L15.3581 4.16615L15.3581 4.16615L15.6075 4.18279ZM15.5521 5.20274L15.8019 5.21334L15.8019 5.21333L15.5521 5.20274ZM15.5485 8.13386L15.7981 8.12063L15.7981 8.12063L15.5485 8.13386ZM14.9369 12.2755L15.1628 12.3825L15.1628 12.3825L14.9369 12.2755ZM12.3227 15.5042L12.1626 15.3122L12.1626 15.3122L12.3227 15.5042ZM9.47542 18.1365L9.65121 18.3142L9.65121 18.3142L9.47542 18.1365ZM8.6427 18.9526L8.46932 18.7725L8.46932 18.7725L8.6427 18.9526ZM8.4991 19.0908L8.32572 19.2709L8.4991 19.4378L8.67248 19.2709L8.4991 19.0908ZM8.35551 18.9526L8.52889 18.7725L8.52889 18.7725L8.35551 18.9526ZM7.52288 18.1366L7.34709 18.3143L7.34709 18.3143L7.52288 18.1366ZM4.67547 15.5043L4.51538 15.6963L4.51538 15.6963L4.67547 15.5043ZM2.06131 12.2755L2.28722 12.1684L2.28722 12.1684L2.06131 12.2755ZM1.44974 8.1339L1.20009 8.12067L1.44974 8.1339ZM1.44608 5.20278L1.1963 5.21337L1.44608 5.20278ZM1.39071 4.18283L1.64016 4.16619L1.64016 4.16619L1.39071 4.18283ZM1.37009 3.89256L1.61937 3.8736L1.61937 3.8736L1.37009 3.89256ZM1.36411 3.81584L1.61331 3.79585L1.61331 3.79585L1.36411 3.81584ZM1.36253 3.79628L1.61169 3.7758L1.61167 3.77564L1.36253 3.79628ZM1.37753 3.78867L1.39718 4.03789L1.35794 3.53944L1.37753 3.78867ZM1.36133 3.78195L1.11133 3.78198L1.11133 3.79246L1.11221 3.8029L1.36133 3.78195ZM1.36133 3.77398L1.61133 3.77395L1.61133 3.77395L1.36133 3.77398ZM1.39198 3.61887L1.15902 3.52815L1.15902 3.52815L1.39198 3.61887ZM1.5309 3.43589L1.6775 3.6384L1.6775 3.6384L1.5309 3.43589ZM1.54416 3.42611L1.69334 3.62672L1.69334 3.62672L1.54416 3.42611ZM1.65919 3.35845L1.748 3.59214L1.748 3.59214L1.65919 3.35845ZM1.72937 3.33686L1.79487 3.57813L1.79487 3.57813L1.72937 3.33686ZM1.74227 3.33337L1.67701 3.09204L1.677 3.09204L1.74227 3.33337ZM1.83016 3.30903L1.89884 3.54941L1.89884 3.5494L1.83016 3.30903ZM2.33499 3.22005L2.29863 2.97271L2.29863 2.97271L2.33499 3.22005ZM2.61728 3.17986L2.58285 2.93224L2.58284 2.93224L2.61728 3.17986ZM2.68663 3.17024L2.72093 3.41787L2.72093 3.41787L2.68663 3.17024ZM2.79173 3.15551L2.82803 3.40286L2.82803 3.40286L2.79173 3.15551ZM5.52088 2.50162L5.60658 2.73647L5.60658 2.73647L5.52088 2.50162ZM7.08912 1.84767L7.19909 2.07218L7.19909 2.07218L7.08912 1.84767ZM7.3109 1.73959L7.41975 1.965L7.43071 1.95901L7.3109 1.73959ZM8.49911 1.54246L8.61891 1.32304L8.4991 1.25763L8.3793 1.32304L8.49911 1.54246ZM7.50204 2.08687L7.61085 2.3123L7.62185 2.30629L7.50204 2.08687ZM7.49739 2.08911L7.60606 2.31426L7.60607 2.31426L7.49739 2.08911ZM7.27208 2.19887L7.16213 1.97435L7.16213 1.97435L7.27208 2.19887ZM5.66464 2.86948L5.75035 3.10433L5.75035 3.10433L5.66464 2.86948ZM2.85282 3.54427L2.81653 3.29692L2.81653 3.29692L2.85282 3.54427ZM2.74171 3.55985L2.70741 3.31221L2.70741 3.31221L2.74171 3.55985ZM2.67524 3.56906L2.70968 3.81668L2.70968 3.81668L2.67524 3.56906ZM2.39619 3.6088L2.35983 3.36146L2.35983 3.36146L2.39619 3.6088ZM1.94555 3.6861L1.87686 3.44572L1.87686 3.44572L1.94555 3.6861ZM1.85161 3.71213L1.91686 3.95346L1.91687 3.95346L1.85161 3.71213ZM1.84008 3.71525L1.77459 3.47398L1.77459 3.47398L1.84008 3.71525ZM1.81466 3.72234L1.74362 3.48265L1.74359 3.48266L1.81466 3.72234ZM1.81307 3.72282L1.74081 3.48349L1.70241 3.49508L1.66957 3.5181L1.81307 3.72282ZM1.79978 3.73244L1.94753 3.93412L1.94753 3.93411L1.79978 3.73244ZM1.7769 3.74912L1.63021 3.54668L1.59382 3.57305L1.56889 3.61044L1.7769 3.74912ZM1.77283 3.75736L2.00579 3.84809L2.00579 3.84809L1.77283 3.75736ZM1.76982 3.78545L2.01902 3.76545L2.01902 3.76545L1.76982 3.78545ZM1.77593 3.86373L2.02521 3.84477L2.02521 3.84477L1.77593 3.86373ZM1.7968 4.15754L2.04624 4.14091L2.04624 4.14091L1.7968 4.15754ZM1.85266 5.18667L2.10244 5.17608L1.85266 5.18667ZM1.85614 8.15401L2.10579 8.16724L2.10579 8.16724L1.85614 8.15401ZM2.43128 12.1117L2.20537 12.2188L2.20537 12.2188L2.43128 12.1117ZM4.94131 15.2066L5.10141 15.0146L5.10141 15.0146L4.94131 15.2066ZM7.822 17.8696L7.64621 18.0474L7.64621 18.0474L7.822 17.8696ZM8.4991 18.5352L8.32495 18.7145L8.4991 18.8836L8.67325 18.7145L8.4991 18.5352ZM9.17629 17.8695L9.35208 18.0473L9.35208 18.0473L9.17629 17.8695ZM12.0569 15.2065L12.217 15.3985L12.217 15.3985L12.0569 15.2065ZM14.5669 12.1117L14.341 12.0046L14.341 12.0046L14.5669 12.1117ZM15.1421 8.15397L14.8924 8.16721L14.8924 8.16721L15.1421 8.15397ZM15.1456 5.18663L15.3953 5.19723L15.3953 5.19723L15.1456 5.18663ZM15.2014 4.1575L14.952 4.14087L14.952 4.14087L15.2014 4.1575ZM15.2223 3.86369L14.973 3.84473L14.973 3.84474L15.2223 3.86369ZM15.2284 3.78541L15.4776 3.8054L15.4776 3.80539L15.2284 3.78541ZM15.2254 3.75733L15.4584 3.66663L15.4583 3.66658L15.2254 3.75733ZM15.2213 3.74908L15.4294 3.61047L15.4044 3.57304L15.368 3.54665L15.2213 3.74908ZM15.1985 3.73242L15.3462 3.53075L15.3462 3.53075L15.1985 3.73242ZM15.1851 3.72278L15.3287 3.51807L15.2958 3.49507L15.2575 3.48347L15.1851 3.72278ZM15.1836 3.7223L15.1125 3.962L15.1126 3.96203L15.1836 3.7223ZM15.1581 3.71521L15.0926 3.95648L15.0926 3.95648L15.1581 3.71521ZM15.1466 3.71209L15.2119 3.47076L15.2119 3.47075L15.1466 3.71209ZM15.0527 3.68606L14.984 3.92644L14.984 3.92644L15.0527 3.68606ZM14.602 3.60876L14.6384 3.36142L14.6384 3.36142L14.602 3.60876ZM14.323 3.56903L14.3574 3.32141L14.3574 3.32141L14.323 3.56903ZM14.2565 3.55981L14.2908 3.31217L14.2908 3.31217L14.2565 3.55981ZM14.1454 3.54423L14.1091 3.79159L14.1091 3.79159L14.1454 3.54423ZM11.3336 2.86944L11.2479 3.10429L11.2479 3.10429L11.3336 2.86944ZM9.72614 2.19883L9.83609 1.97431L9.83609 1.97431L9.72614 2.19883ZM9.50083 2.08908L9.60949 1.86393L9.60948 1.86392L9.50083 2.08908ZM9.49618 2.08683L9.37623 2.30653L9.38752 2.31198L9.49618 2.08683ZM10.0191 1.62311C9.95083 1.58969 9.87764 1.55383 9.79602 1.51442L9.5786 1.96467C9.65879 2.00339 9.73079 2.03867 9.79912 2.07214L10.0191 1.62311ZM11.563 2.26673C10.6572 1.93616 10.4128 1.816 10.0191 1.62311L9.79912 2.07214C10.2081 2.27249 10.4686 2.39961 11.3916 2.73643L11.563 2.26673ZM14.2428 2.90812C13.6364 2.81914 12.6014 2.64563 11.563 2.26673L11.3916 2.73643C12.4789 3.13319 13.5545 3.31248 14.1702 3.40283L14.2428 2.90812ZM14.3459 2.92256C14.297 2.91579 14.2618 2.91092 14.2428 2.90812L14.1702 3.40283C14.1918 3.40599 14.2296 3.41123 14.2773 3.41783L14.3459 2.92256ZM14.4154 2.9322C14.3902 2.9287 14.3669 2.92547 14.3459 2.92256L14.2773 3.41783C14.2983 3.42074 14.3215 3.42396 14.3465 3.42744L14.4154 2.9322ZM14.6996 2.97267C14.5979 2.95772 14.4974 2.94361 14.4154 2.9322L14.3465 3.42744C14.4281 3.43879 14.5271 3.45269 14.6269 3.46736L14.6996 2.97267ZM15.2368 3.06861C15.1256 3.03684 14.8843 2.99982 14.6996 2.97267L14.6269 3.46736C14.8279 3.49691 15.0282 3.52902 15.0994 3.54937L15.2368 3.06861ZM15.3212 3.092C15.299 3.08599 15.2726 3.07886 15.2368 3.06861L15.0994 3.54937C15.1388 3.56064 15.168 3.56853 15.1907 3.57466L15.3212 3.092ZM15.3337 3.09538C15.3296 3.09428 15.3254 3.09315 15.3212 3.092L15.1907 3.57466C15.195 3.57582 15.1989 3.57689 15.2027 3.57792L15.3337 3.09538ZM15.4278 3.12472C15.3911 3.11075 15.353 3.10063 15.3337 3.09538L15.2027 3.57792C15.2263 3.58433 15.2403 3.58835 15.2502 3.5921L15.4278 3.12472ZM15.6032 3.22545C15.5756 3.20494 15.5131 3.1571 15.4278 3.12472L15.2502 3.5921C15.2633 3.59708 15.2761 3.6053 15.3049 3.62668L15.6032 3.22545ZM15.6139 3.23335C15.6113 3.23144 15.6082 3.22915 15.6032 3.22545L15.3049 3.62669C15.3093 3.62995 15.315 3.63423 15.3207 3.63835L15.6139 3.23335ZM15.8392 3.52811C15.8049 3.44015 15.7388 3.32372 15.6139 3.23334L15.3207 3.63836C15.3463 3.65688 15.3629 3.68289 15.3733 3.70956L15.8392 3.52811ZM15.8869 3.77397C15.8869 3.70084 15.8727 3.6141 15.8392 3.52811L15.3733 3.70956C15.3838 3.73667 15.3869 3.76178 15.3869 3.77392L15.8869 3.77397ZM15.8869 3.78194L15.8869 3.77397L15.3869 3.77392L15.3869 3.78188L15.8869 3.78194ZM15.8853 3.81081L15.886 3.80287L15.3878 3.76095L15.3871 3.76889L15.8853 3.81081ZM15.6016 4.0379L15.6166 4.03908L15.6558 3.54062L15.6408 3.53944L15.6016 4.0379ZM15.6362 3.78985C15.4489 3.95545 15.4101 3.68323 15.6448 3.54C15.6463 3.54005 15.6491 3.54018 15.6505 3.54025C15.6519 3.54034 15.653 3.54041 15.6532 3.54042C15.6539 3.54047 15.6544 3.54051 15.6545 3.54052C15.6549 3.54054 15.6551 3.54056 15.6552 3.54057C15.6553 3.54058 15.6555 3.54059 15.6555 3.54059C15.6555 3.5406 15.6556 3.5406 15.6556 3.5406C15.6556 3.5406 15.6556 3.5406 15.6556 3.5406C15.6556 3.54061 15.6556 3.5406 15.6555 3.54059C15.6553 3.54058 15.6548 3.54054 15.6539 3.54047C15.652 3.54032 15.6483 3.54003 15.6408 3.53944L15.6016 4.0379C15.6091 4.03849 15.6129 4.03879 15.6148 4.03894C15.6157 4.03901 15.6162 4.03905 15.6165 4.03907C15.6166 4.03908 15.6167 4.03908 15.6168 4.03909C15.6168 4.03909 15.6169 4.0391 15.6169 4.0391C15.617 4.03911 15.6171 4.03912 15.6173 4.03913C15.6173 4.03913 15.6176 4.03915 15.6179 4.03918C15.618 4.03919 15.6186 4.03923 15.6193 4.03927C15.6195 4.03929 15.6206 4.03936 15.622 4.03944C15.6234 4.03952 15.6262 4.03965 15.6276 4.0397C15.8623 3.89647 15.8235 3.62424 15.6362 3.78985ZM15.8852 3.81215L15.8854 3.81063L15.3871 3.76907L15.387 3.77059L15.8852 3.81215ZM15.8848 3.81683L15.8852 3.81196L15.3869 3.77078L15.3865 3.77565L15.8848 3.81683ZM15.8833 3.83581C15.884 3.8273 15.8845 3.82091 15.8849 3.81671L15.3865 3.77577C15.3862 3.78028 15.3856 3.78698 15.3849 3.7958L15.8833 3.83581ZM15.8774 3.91148C15.8799 3.87823 15.8819 3.85279 15.8833 3.83579L15.3849 3.79582C15.3835 3.81347 15.3814 3.8396 15.3788 3.87356L15.8774 3.91148ZM15.857 4.19942C15.8652 4.07566 15.8723 3.97797 15.8774 3.91148L15.3788 3.87355C15.3737 3.94148 15.3664 4.04072 15.3581 4.16615L15.857 4.19942ZM15.8019 5.21333C15.8195 4.79861 15.8404 4.44702 15.857 4.19942L15.3581 4.16615C15.3413 4.41702 15.3202 4.7727 15.3024 5.19214L15.8019 5.21333ZM15.7981 8.12063C15.7452 7.1216 15.7666 6.04476 15.8019 5.21334L15.3024 5.19214C15.2668 6.03076 15.2447 7.1254 15.2988 8.14709L15.7981 8.12063ZM15.1628 12.3825C15.6387 11.3785 15.909 10.2126 15.7981 8.12063L15.2988 8.14709C15.4064 10.1776 15.1431 11.2567 14.711 12.1684L15.1628 12.3825ZM12.4828 15.6963C13.7081 14.6747 14.6951 13.3692 15.1628 12.3825L14.711 12.1684C14.2777 13.0825 13.3386 14.3318 12.1626 15.3122L12.4828 15.6963ZM9.65121 18.3142C10.4634 17.5111 11.3089 16.6751 12.4828 15.6963L12.1626 15.3122C10.9709 16.3058 10.1123 17.155 9.29963 17.9587L9.65121 18.3142ZM8.81608 19.1327C9.09822 18.8611 9.37308 18.5893 9.65121 18.3142L9.29963 17.9587C9.02112 18.2342 8.74864 18.5036 8.46932 18.7725L8.81608 19.1327ZM8.67248 19.2709L8.81608 19.1327L8.46932 18.7725L8.32572 18.9107L8.67248 19.2709ZM8.18213 19.1327L8.32572 19.2709L8.67248 18.9107L8.52889 18.7725L8.18213 19.1327ZM7.34709 18.3143C7.62519 18.5893 7.90002 18.8611 8.18213 19.1327L8.52889 18.7725C8.2496 18.5036 7.97715 18.2342 7.69866 17.9588L7.34709 18.3143ZM4.51538 15.6963C5.6894 16.6752 6.53492 17.5112 7.34709 18.3143L7.69866 17.9588C6.88593 17.1551 6.02732 16.3059 4.83557 15.3123L4.51538 15.6963ZM1.83541 12.3826C2.30309 13.3693 3.29013 14.6747 4.51538 15.6963L4.83557 15.3123C3.65965 14.3318 2.72051 13.0825 2.28722 12.1684L1.83541 12.3826ZM1.20009 8.12067C1.08922 10.2126 1.35953 11.3786 1.83541 12.3826L2.28722 12.1684C1.85508 11.2567 1.59177 10.1776 1.69939 8.14713L1.20009 8.12067ZM1.1963 5.21337C1.23158 6.0448 1.25304 7.12164 1.20009 8.12067L1.69939 8.14713C1.75355 7.12543 1.73143 6.0308 1.69585 5.19218L1.1963 5.21337ZM1.14127 4.19946C1.15778 4.44706 1.17871 4.79865 1.1963 5.21337L1.69585 5.19218C1.67806 4.77274 1.65689 4.41706 1.64016 4.16619L1.14127 4.19946ZM1.12081 3.91152C1.12587 3.97801 1.13301 4.0757 1.14127 4.19946L1.64016 4.16619C1.63179 4.04076 1.62454 3.94151 1.61937 3.8736L1.12081 3.91152ZM1.11491 3.83584C1.11628 3.85283 1.11828 3.87827 1.12081 3.91152L1.61937 3.8736C1.61679 3.83964 1.61473 3.81351 1.61331 3.79585L1.11491 3.83584ZM1.11337 3.81676C1.11371 3.82096 1.11423 3.82734 1.11491 3.83584L1.61331 3.79585C1.6126 3.78702 1.61206 3.78031 1.61169 3.7758L1.11337 3.81676ZM1.35794 3.53944C1.35017 3.54005 1.34623 3.54036 1.34422 3.54052C1.34323 3.5406 1.34263 3.54064 1.34225 3.54067C1.34208 3.54069 1.3418 3.54071 1.34149 3.54074C1.34139 3.54074 1.34094 3.54078 1.34037 3.54083C1.3402 3.54084 1.33931 3.54092 1.33818 3.54103C1.33785 3.54106 1.33607 3.54123 1.33381 3.54149C1.33316 3.54156 1.32962 3.54196 1.32513 3.54263C1.32381 3.54282 1.31683 3.54384 1.30805 3.54578C1.29976 3.54776 1.28362 3.5525 1.27579 3.55523C1.15129 3.65534 1.11284 3.81041 1.362 3.78989C1.61115 3.76938 1.5727 3.92444 1.4482 4.02456C1.44037 4.02729 1.42424 4.03202 1.41595 4.034C1.40717 4.03594 1.40018 4.03696 1.39886 4.03716C1.39438 4.03783 1.39083 4.03822 1.39018 4.0383C1.38792 4.03856 1.38614 4.03872 1.38582 4.03876C1.38469 4.03886 1.3838 4.03894 1.38364 4.03895C1.38307 4.039 1.38264 4.03904 1.38257 4.03904C1.38232 4.03907 1.38215 4.03908 1.38223 4.03907C1.38234 4.03906 1.38271 4.03903 1.38366 4.03896C1.38553 4.03881 1.38936 4.03851 1.39711 4.0379L1.35794 3.53944ZM1.38165 4.03912L1.39718 4.03789L1.35787 3.53944L1.34234 3.54067L1.38165 4.03912ZM1.11221 3.8029L1.11288 3.81085L1.61112 3.76894L1.61045 3.76099L1.11221 3.8029ZM1.11133 3.77402L1.11133 3.78198L1.61133 3.78192L1.61133 3.77395L1.11133 3.77402ZM1.15902 3.52815C1.12553 3.61413 1.11132 3.70088 1.11133 3.77402L1.61133 3.77395C1.61133 3.76182 1.61437 3.73671 1.62494 3.70959L1.15902 3.52815ZM1.3843 3.23338C1.25945 3.32376 1.19328 3.44019 1.15902 3.52815L1.62494 3.70959C1.63532 3.68293 1.65191 3.65691 1.6775 3.6384L1.3843 3.23338ZM1.39499 3.22549C1.39001 3.22919 1.38693 3.23148 1.3843 3.23338L1.6775 3.6384C1.6832 3.63427 1.68896 3.62998 1.69334 3.62672L1.39499 3.22549ZM1.57037 3.12476C1.48516 3.15714 1.42257 3.20498 1.39499 3.22549L1.69334 3.62672C1.7221 3.60534 1.7349 3.59712 1.748 3.59214L1.57037 3.12476ZM1.66388 3.09559C1.64438 3.10089 1.60709 3.1108 1.57037 3.12476L1.748 3.59214C1.75794 3.58836 1.7714 3.5845 1.79487 3.57813L1.66388 3.09559ZM1.677 3.09204C1.67274 3.0932 1.66791 3.0945 1.66388 3.0956L1.79487 3.57813C1.79866 3.5771 1.80329 3.57585 1.80754 3.5747L1.677 3.09204ZM1.76147 3.06865C1.72558 3.0789 1.69924 3.08603 1.67701 3.09204L1.80754 3.5747C1.83021 3.56857 1.85937 3.56068 1.89884 3.54941L1.76147 3.06865ZM2.29863 2.97271C2.11397 2.99986 1.87265 3.03688 1.76147 3.06865L1.89884 3.5494C1.97004 3.52906 2.17033 3.49695 2.37135 3.4674L2.29863 2.97271ZM2.58284 2.93224C2.5008 2.94365 2.40035 2.95776 2.29863 2.97271L2.37135 3.4674C2.47115 3.45273 2.57011 3.43882 2.65171 3.42748L2.58284 2.93224ZM2.65233 2.9226C2.63132 2.92551 2.60802 2.92874 2.58285 2.93224L2.65171 3.42748C2.67674 3.424 2.69991 3.42079 2.72093 3.41787L2.65233 2.9226ZM2.75544 2.90816C2.7364 2.91096 2.70123 2.91583 2.65233 2.9226L2.72093 3.41787C2.76859 3.41127 2.80644 3.40603 2.82803 3.40286L2.75544 2.90816ZM5.43518 2.26677C4.39685 2.64567 3.36182 2.81918 2.75544 2.90816L2.82803 3.40286C3.44374 3.31252 4.51933 3.13323 5.60658 2.73647L5.43518 2.26677ZM6.97914 1.62315C6.58537 1.81604 6.34106 1.9362 5.43518 2.26677L5.60658 2.73647C6.52959 2.39965 6.79009 2.27253 7.19909 2.07218L6.97914 1.62315ZM7.20219 1.51446C7.12057 1.55388 7.04738 1.58973 6.97914 1.62315L7.19909 2.07218C7.26742 2.03871 7.33943 2.00344 7.41961 1.96471L7.20219 1.51446ZM7.60607 2.31426L7.61072 2.31201L7.39337 1.86172L7.38872 1.86397L7.60607 2.31426ZM7.38203 2.4234C7.45168 2.38929 7.52484 2.35346 7.60606 2.31426L7.38873 1.86397C7.30605 1.90387 7.23168 1.94029 7.16213 1.97435L7.38203 2.4234ZM5.75035 3.10433C6.69311 2.7603 6.96635 2.62696 7.38203 2.4234L7.16213 1.97435C6.76145 2.17056 6.50438 2.29692 5.57894 2.63463L5.75035 3.10433ZM2.88912 3.79162C3.51279 3.70011 4.62231 3.51597 5.75035 3.10433L5.57894 2.63463C4.49981 3.02842 3.43084 3.20678 2.81653 3.29692L2.88912 3.79162ZM2.77601 3.80748C2.82504 3.80069 2.86577 3.79505 2.88912 3.79162L2.81653 3.29692C2.79572 3.29997 2.75765 3.30525 2.70741 3.31221L2.77601 3.80748ZM2.70968 3.81668C2.73318 3.81341 2.75544 3.81033 2.77601 3.80748L2.70741 3.31221C2.68685 3.31506 2.66446 3.31816 2.64081 3.32145L2.70968 3.81668ZM2.43255 3.85614C2.53074 3.8417 2.62845 3.82798 2.70968 3.81668L2.64081 3.32145C2.55914 3.3328 2.45994 3.34674 2.35983 3.36146L2.43255 3.85614ZM2.01424 3.92648C2.01423 3.92648 2.01454 3.92639 2.01521 3.92622C2.01586 3.92604 2.01678 3.92581 2.01797 3.92551C2.02038 3.92491 2.02358 3.92416 2.02764 3.92325C2.03584 3.92141 2.04634 3.91922 2.05926 3.91668C2.08513 3.91161 2.11794 3.90572 2.15656 3.89918C2.23368 3.88613 2.32999 3.87122 2.43255 3.85614L2.35983 3.36146C2.1616 3.3906 1.95459 3.42351 1.87686 3.44572L2.01424 3.92648ZM1.91687 3.95346C1.93962 3.94731 1.9717 3.93863 2.01424 3.92648L1.87686 3.44572C1.83791 3.45685 1.80866 3.46476 1.78635 3.47079L1.91687 3.95346ZM1.90558 3.95652C1.90901 3.95558 1.91272 3.95458 1.91686 3.95346L1.78636 3.47079C1.78228 3.4719 1.77831 3.47297 1.77459 3.47398L1.90558 3.95652ZM1.88569 3.96204C1.88843 3.96123 1.89364 3.95976 1.90558 3.95652L1.77459 3.47398C1.76268 3.47721 1.75247 3.48002 1.74362 3.48265L1.88569 3.96204ZM1.88533 3.96214L1.88572 3.96203L1.74359 3.48266C1.74271 3.48291 1.74178 3.48319 1.74081 3.48349L1.88533 3.96214ZM1.94753 3.93411C1.95435 3.92912 1.95579 3.92808 1.95657 3.92753L1.66957 3.5181C1.66352 3.52234 1.65721 3.52698 1.65204 3.53077L1.94753 3.93411ZM1.92359 3.95156C1.93435 3.94377 1.94199 3.93817 1.94753 3.93412L1.65204 3.53077C1.64667 3.5347 1.63988 3.53967 1.63021 3.54668L1.92359 3.95156ZM2.00579 3.84809C2.0016 3.85885 1.99509 3.87254 1.98491 3.88781L1.56889 3.61044C1.5569 3.62843 1.54734 3.64747 1.53987 3.66664L2.00579 3.84809ZM2.01467 3.81701C2.01371 3.82218 2.01256 3.82708 2.01124 3.83179C2.00992 3.83649 2.00817 3.84196 2.00579 3.84809L1.53987 3.66664C1.53183 3.6873 1.52647 3.70745 1.52311 3.72551L2.01467 3.81701ZM2.01519 3.81411C2.01522 3.81397 2.01525 3.81376 2.0153 3.8135C2.01533 3.81331 2.01543 3.81275 2.01554 3.81203C2.0156 3.81171 2.01573 3.81091 2.01589 3.80989C2.01597 3.80939 2.01612 3.80844 2.01629 3.80723C2.01638 3.80662 2.01651 3.8057 2.01666 3.80459C2.0168 3.80359 2.01705 3.8017 2.01732 3.79931C2.01746 3.79809 2.01765 3.79627 2.01786 3.79405C2.01804 3.79208 2.01836 3.78835 2.01859 3.78364C2.01869 3.78143 2.01885 3.77631 2.01889 3.7734C2.0189 3.76937 2.01863 3.75946 2.01828 3.75359C2.01744 3.74421 2.01321 3.71814 2.00904 3.70166C1.99597 3.66658 1.91567 3.5688 1.83452 3.52995C1.73405 3.52363 1.60375 3.5835 1.5734 3.61537C1.56192 3.63098 1.54675 3.65652 1.5422 3.6658C1.53958 3.67162 1.53555 3.68149 1.53404 3.6855C1.533 3.68841 1.53127 3.69353 1.53056 3.69573C1.52908 3.70041 1.52804 3.70417 1.52752 3.70613C1.52692 3.70834 1.52646 3.71017 1.52616 3.71138C1.52557 3.71377 1.52514 3.71567 1.52492 3.71666C1.52467 3.71778 1.52448 3.7187 1.52435 3.71931C1.52409 3.72051 1.5239 3.72147 1.5238 3.72197C1.52346 3.72364 1.52321 3.72499 1.52319 3.72506C1.52312 3.72548 1.52306 3.72581 1.52302 3.72599C1.52295 3.72636 1.5229 3.72668 1.52286 3.7269C1.52282 3.72712 1.52276 3.72746 1.52268 3.72787C1.52265 3.72805 1.52258 3.72846 1.52249 3.72897C1.52245 3.72922 1.52237 3.72969 1.52227 3.73028C1.52222 3.73056 1.52196 3.73215 1.52166 3.73416C1.52157 3.73476 1.52143 3.73567 1.52128 3.73678C1.52114 3.73775 1.52088 3.73966 1.52059 3.74208C1.52045 3.74331 1.52024 3.74519 1.52002 3.74748C1.51982 3.74948 1.51946 3.7535 1.5192 3.7586C1.51909 3.76103 1.51892 3.76677 1.51888 3.77008C1.5189 3.77478 1.51935 3.78671 1.5199 3.79392C1.52131 3.80619 1.5293 3.8428 1.53769 3.8665C1.56902 3.92154 1.71948 4.01642 1.83666 4.01198C1.89746 3.98574 1.96632 3.9247 1.98124 3.90325C1.98767 3.8923 1.99668 3.87433 1.99962 3.86755C2.00142 3.86312 2.00429 3.85549 2.0054 3.85232C2.00618 3.84998 2.00752 3.84582 2.00808 3.84401C2.00927 3.84009 2.01013 3.83693 2.01058 3.8352C2.01109 3.83328 2.01148 3.8317 2.01175 3.83061C2.01264 3.82696 2.01325 3.82407 2.01337 3.8235C2.01378 3.8216 2.01407 3.82011 2.01413 3.81982C2.01424 3.81925 2.01433 3.8188 2.01438 3.81856C2.01453 3.81775 2.01466 3.81708 2.01467 3.81701L1.52311 3.72551C1.52311 3.72551 1.52323 3.72489 1.52338 3.7241C1.52342 3.72387 1.52351 3.72342 1.52362 3.72286C1.52368 3.72257 1.52397 3.72108 1.52438 3.71919C1.5245 3.71862 1.52511 3.71573 1.526 3.71208C1.52627 3.71099 1.52666 3.70941 1.52717 3.70749C1.52762 3.70576 1.52848 3.7026 1.52967 3.69869C1.53023 3.69687 1.53157 3.69271 1.53235 3.69037C1.53346 3.6872 1.53633 3.67958 1.53813 3.67514C1.54107 3.66836 1.55008 3.65039 1.55651 3.63944C1.57143 3.61799 1.64029 3.55695 1.70109 3.53071C1.81827 3.52627 1.96873 3.62115 2.00006 3.67619C2.00845 3.6999 2.01644 3.73651 2.01785 3.74877C2.0184 3.75598 2.01885 3.76791 2.01887 3.77261C2.01883 3.77592 2.01866 3.78166 2.01855 3.78409C2.01829 3.78919 2.01793 3.79321 2.01773 3.79521C2.01751 3.7975 2.0173 3.79938 2.01716 3.80061C2.01687 3.80303 2.01661 3.80494 2.01647 3.80591C2.01632 3.80702 2.01618 3.80793 2.01609 3.80853C2.01579 3.81054 2.01553 3.81212 2.01548 3.8124C2.01538 3.81299 2.0153 3.81345 2.01526 3.8137C2.01517 3.8142 2.01511 3.8146 2.01507 3.81477C2.01501 3.81515 2.01495 3.81546 2.01492 3.81564C2.01489 3.81583 2.01483 3.81611 2.01477 3.81646C2.01474 3.81662 2.01468 3.81694 2.01461 3.81734C2.0146 3.8174 2.01435 3.81874 2.01401 3.82041C2.01391 3.82091 2.01372 3.82186 2.01346 3.82307C2.01333 3.82368 2.01313 3.8246 2.01288 3.82571C2.01266 3.8267 2.01223 3.8286 2.01165 3.83099C2.01135 3.83221 2.01089 3.83403 2.01029 3.83624C2.00976 3.8382 2.00873 3.84196 2.00724 3.84665C2.00654 3.84885 2.0048 3.85396 2.00376 3.85687C2.00226 3.86088 1.99822 3.87075 1.99561 3.87657C1.99106 3.88585 1.97589 3.91139 1.96441 3.927C1.93405 3.95887 1.80376 4.01875 1.70328 4.01242C1.62214 3.97357 1.54184 3.87579 1.52877 3.84071C1.5246 3.82423 1.52036 3.79816 1.51952 3.78879C1.51918 3.78291 1.51891 3.77301 1.51891 3.76898C1.51896 3.76606 1.51911 3.76094 1.51921 3.75873C1.51945 3.75403 1.51977 3.75029 1.51995 3.74832C1.52015 3.74611 1.52035 3.74429 1.52049 3.74307C1.52076 3.74068 1.52101 3.73878 1.52114 3.73779C1.52129 3.73667 1.52143 3.73576 1.52152 3.73514C1.52169 3.73394 1.52184 3.73299 1.52192 3.73249C1.52208 3.73147 1.52221 3.73067 1.52226 3.73036C1.52238 3.72965 1.52247 3.72911 1.5225 3.72894C1.52254 3.7287 1.52257 3.72851 1.52259 3.72841L2.01519 3.81411ZM2.01902 3.76545C2.01905 3.76585 2.01903 3.76569 2.01889 3.76316C2.01883 3.76225 2.01872 3.76041 2.01862 3.75866C2.0185 3.75689 2.01832 3.75413 2.01807 3.75098L1.51972 3.79154C1.51961 3.79026 1.51957 3.78955 1.5196 3.78998C1.51963 3.79044 1.51966 3.79095 1.51974 3.79247C1.51988 3.7948 1.52018 3.79987 1.52062 3.80544L2.01902 3.76545ZM2.02521 3.84477C2.02258 3.81027 2.02048 3.78362 2.01902 3.76545L1.52062 3.80544C1.52203 3.82294 1.52408 3.84891 1.52665 3.88269L2.02521 3.84477ZM2.04624 4.14091C2.03779 4.0142 2.03045 3.91377 2.02521 3.84477L1.52665 3.88269C1.53179 3.95027 1.53901 4.04914 1.54735 4.17418L2.04624 4.14091ZM2.10244 5.17608C2.08449 4.75305 2.06314 4.39425 2.04624 4.14091L1.54735 4.17418C1.56403 4.42426 1.58514 4.77896 1.60289 5.19727L2.10244 5.17608ZM2.10579 8.16724C2.16085 7.12832 2.13825 6.02016 2.10244 5.17608L1.60289 5.19727C1.63839 6.03416 1.66035 7.12452 1.60649 8.14078L2.10579 8.16724ZM2.65719 12.0047C2.25873 11.164 2.00063 10.1512 2.10579 8.16724L1.60649 8.14078C1.49807 10.1862 1.76318 11.2859 2.20537 12.2188L2.65719 12.0047ZM5.10141 15.0146C3.96539 14.0674 3.06384 12.8626 2.65719 12.0047L2.20537 12.2188C2.64641 13.1493 3.59586 14.4103 4.78121 15.3986L5.10141 15.0146ZM7.99779 17.6919C7.18245 16.8856 6.30746 16.0201 5.10141 15.0146L4.78121 15.3986C5.96952 16.3894 6.83142 17.2416 7.64621 18.0474L7.99779 17.6919ZM8.67325 18.3558C8.44868 18.1378 8.2258 17.9174 7.99779 17.6919L7.64621 18.0474C7.87394 18.2726 8.09845 18.4946 8.32495 18.7145L8.67325 18.3558ZM9.0005 17.6918C8.77246 17.9173 8.54956 18.1377 8.32495 18.3558L8.67325 18.7145C8.89978 18.4946 9.12432 18.2725 9.35208 18.0473L9.0005 17.6918ZM11.8968 15.0145C10.6908 16.0201 9.81581 16.8855 9.0005 17.6918L9.35208 18.0473C10.1668 17.2415 11.0287 16.3893 12.217 15.3985L11.8968 15.0145ZM14.341 12.0046C13.9344 12.8626 13.0328 14.0673 11.8968 15.0145L12.217 15.3985C13.4024 14.4102 14.3518 13.1493 14.7928 12.2188L14.341 12.0046ZM14.8924 8.16721C14.9976 10.1512 14.7395 11.164 14.341 12.0046L14.7928 12.2188C15.235 11.2859 15.5001 10.1862 15.3917 8.14074L14.8924 8.16721ZM14.8958 5.17604C14.86 6.02012 14.8374 7.12828 14.8924 8.16721L15.3917 8.14074C15.3379 7.12448 15.3598 6.03412 15.3953 5.19723L14.8958 5.17604ZM14.952 4.14087C14.9351 4.39422 14.9137 4.75301 14.8958 5.17604L15.3953 5.19723C15.4131 4.77892 15.4342 4.42422 15.4509 4.17414L14.952 4.14087ZM14.973 3.84474C14.9678 3.91374 14.9604 4.01416 14.952 4.14087L15.4509 4.17414C15.4592 4.0491 15.4664 3.95023 15.4716 3.88265L14.973 3.84474ZM14.9792 3.76542C14.9777 3.78359 14.9756 3.81024 14.973 3.84473L15.4716 3.88266C15.4741 3.84886 15.4762 3.8229 15.4776 3.8054L14.9792 3.76542ZM14.9803 3.75172C14.98 3.75555 14.9796 3.76013 14.9792 3.76543L15.4776 3.80539C15.478 3.80034 15.4784 3.796 15.4786 3.79237L14.9803 3.75172ZM14.9837 3.81765C14.9837 3.81771 14.9838 3.81827 14.9839 3.81895C14.984 3.81915 14.984 3.81953 14.9841 3.82C14.9842 3.82025 14.9844 3.8215 14.9847 3.82308C14.9848 3.82356 14.9853 3.82598 14.9861 3.82905C14.9863 3.82996 14.9866 3.8313 14.987 3.83291C14.9874 3.83437 14.988 3.83704 14.989 3.84036C14.9894 3.84191 14.9905 3.84545 14.9911 3.84745C14.992 3.85017 14.9942 3.85674 14.9957 3.86058C14.998 3.86653 15.0052 3.88255 15.0104 3.89247C15.0229 3.91297 15.0889 3.97885 15.1512 4.00956C15.2867 4.0155 15.4431 3.90208 15.4681 3.84661C15.4737 3.82558 15.4786 3.79381 15.4792 3.78343C15.4794 3.77738 15.4794 3.76742 15.4793 3.76351C15.4792 3.76076 15.479 3.75599 15.4788 3.75397C15.4785 3.74974 15.4782 3.7464 15.478 3.74474C15.4778 3.74284 15.4776 3.74128 15.4775 3.74025C15.477 3.73682 15.4766 3.73413 15.4765 3.73367C15.4763 3.73199 15.476 3.73068 15.476 3.73044C15.4759 3.72995 15.4758 3.72956 15.4758 3.72935C15.4757 3.72892 15.4757 3.72858 15.4756 3.72842C15.4756 3.72808 15.4755 3.72779 15.4755 3.72761C15.4755 3.72742 15.4754 3.72715 15.4754 3.72684C15.4753 3.72669 15.4753 3.72641 15.4752 3.72607C15.4752 3.72601 15.475 3.72488 15.4747 3.72348C15.4746 3.72306 15.4745 3.72226 15.4743 3.72125C15.4742 3.72076 15.4736 3.71804 15.4728 3.7146C15.4726 3.71358 15.4722 3.71204 15.4717 3.71018C15.4713 3.70853 15.4705 3.70534 15.4693 3.70136C15.4687 3.69948 15.4674 3.69511 15.4665 3.69262C15.4653 3.68916 15.4622 3.68058 15.4601 3.67549C15.4565 3.66722 15.4441 3.64377 15.4346 3.62908C15.4069 3.59585 15.2659 3.52465 15.1501 3.53491C15.0667 3.58219 14.9939 3.68814 14.9848 3.72044C14.9823 3.7347 14.9799 3.75696 14.9796 3.76485C14.9795 3.76976 14.9795 3.77803 14.9796 3.78138C14.9797 3.7838 14.98 3.78806 14.9801 3.78989C14.9804 3.7938 14.9807 3.7969 14.9809 3.79854C14.9811 3.80037 14.9813 3.80188 14.9814 3.8029C14.9818 3.80631 14.9822 3.80898 14.9823 3.80949C14.9824 3.81049 14.9826 3.81128 14.9826 3.8117C14.9828 3.81255 14.9829 3.81322 14.9829 3.81348C14.9831 3.81443 14.9832 3.81522 14.9832 3.81522L15.4757 3.72887C15.4757 3.72895 15.4758 3.72911 15.4758 3.7293C15.4758 3.72944 15.4759 3.72989 15.476 3.73048C15.476 3.73074 15.4762 3.73141 15.4763 3.73226C15.4764 3.73267 15.4765 3.73346 15.4766 3.73446C15.4767 3.73496 15.4771 3.73763 15.4775 3.74105C15.4777 3.74206 15.4779 3.74357 15.478 3.74541C15.4782 3.74705 15.4785 3.75015 15.4788 3.75405C15.4789 3.75589 15.4792 3.76014 15.4793 3.76256C15.4794 3.76592 15.4795 3.77418 15.4794 3.77909C15.479 3.78699 15.4767 3.80925 15.4741 3.8235C15.465 3.85581 15.3922 3.96176 15.3089 4.00903C15.193 4.0193 15.052 3.94809 15.0243 3.91487C15.0148 3.90018 15.0025 3.87673 14.9988 3.86846C14.9968 3.86337 14.9936 3.85479 14.9924 3.85133C14.9916 3.84884 14.9902 3.84446 14.9896 3.84258C14.9885 3.8386 14.9876 3.83542 14.9872 3.83377C14.9867 3.8319 14.9864 3.83037 14.9861 3.82934C14.9853 3.8259 14.9848 3.82318 14.9847 3.8227C14.9845 3.82169 14.9843 3.82089 14.9842 3.82047C14.9839 3.81908 14.9837 3.81796 14.9837 3.81791C14.9837 3.81757 14.9836 3.81731 14.9836 3.81718C14.9835 3.81689 14.9835 3.81666 14.9835 3.8165C14.9834 3.81635 14.9834 3.8161 14.9833 3.81578C14.9833 3.81564 14.9833 3.81531 14.9832 3.81489C14.9831 3.81469 14.9831 3.8143 14.983 3.81382C14.983 3.81358 14.9827 3.81227 14.9825 3.81059C14.9824 3.81013 14.982 3.80744 14.9815 3.80401C14.9814 3.80299 14.9812 3.80143 14.981 3.79952C14.9808 3.79786 14.9805 3.79452 14.9802 3.79029C14.98 3.78827 14.9798 3.7835 14.9796 3.78075C14.9795 3.77684 14.9795 3.76688 14.9797 3.76084C14.9804 3.75046 14.9853 3.71868 14.9908 3.69766C15.0159 3.64218 15.1723 3.52876 15.3078 3.5347C15.3701 3.56542 15.436 3.63129 15.4486 3.65179C15.4538 3.66171 15.461 3.67773 15.4633 3.68368C15.4647 3.68752 15.467 3.69409 15.4679 3.69681C15.4685 3.69881 15.4696 3.70235 15.47 3.7039C15.4709 3.70722 15.4716 3.70989 15.472 3.71135C15.4724 3.71296 15.4727 3.7143 15.4729 3.71521C15.4736 3.71828 15.4741 3.7207 15.4742 3.72118C15.4746 3.72276 15.4748 3.72401 15.4749 3.72425C15.475 3.72472 15.475 3.72509 15.4751 3.72529C15.4751 3.72569 15.4752 3.72599 15.4752 3.72611C15.4752 3.72626 15.4753 3.72638 15.4753 3.72645L14.9837 3.81765ZM14.9924 3.84802C14.9893 3.84002 14.9875 3.83383 14.9866 3.83036C14.9855 3.82663 14.9846 3.82254 14.9837 3.81778L15.4753 3.72631C15.4724 3.71091 15.4672 3.68938 15.4584 3.66663L14.9924 3.84802ZM15.0133 3.8877C15.0032 3.87252 14.9967 3.85888 14.9924 3.84807L15.4583 3.66658C15.4509 3.64737 15.4413 3.62837 15.4294 3.61047L15.0133 3.8877ZM15.0507 3.93409C15.0563 3.93815 15.0639 3.94374 15.0746 3.95152L15.368 3.54665C15.3584 3.53965 15.3516 3.53468 15.3462 3.53075L15.0507 3.93409ZM15.0416 3.92748C15.0424 3.92805 15.0439 3.92912 15.0507 3.93409L15.3462 3.53075C15.341 3.52692 15.3347 3.5223 15.3287 3.51807L15.0416 3.92748ZM15.1126 3.96203L15.1128 3.96208L15.2575 3.48347C15.2565 3.48318 15.2555 3.48289 15.2545 3.48258L15.1126 3.96203ZM15.0926 3.95648C15.1046 3.95972 15.1098 3.96119 15.1125 3.962L15.2546 3.48261C15.2458 3.47999 15.2355 3.47717 15.2236 3.47394L15.0926 3.95648ZM15.0813 3.95342C15.0855 3.95454 15.0892 3.95554 15.0926 3.95648L15.2236 3.47394C15.2199 3.47293 15.2159 3.47185 15.2119 3.47076L15.0813 3.95342ZM14.984 3.92644C15.0265 3.93859 15.0586 3.94727 15.0813 3.95342L15.2119 3.47075C15.1896 3.46472 15.1603 3.45681 15.1214 3.44568L14.984 3.92644ZM14.5657 3.8561C14.6682 3.87118 14.7645 3.8861 14.8417 3.89914C14.8803 3.90568 14.9131 3.91157 14.939 3.91665C14.9519 3.91918 14.9624 3.92137 14.9706 3.92321C14.9746 3.92412 14.9778 3.92488 14.9803 3.92547C14.9814 3.92577 14.9824 3.926 14.983 3.92618C14.9837 3.92635 14.984 3.92644 14.984 3.92644L15.1214 3.44568C15.0436 3.42347 14.8366 3.39056 14.6384 3.36142L14.5657 3.8561ZM14.2885 3.81664C14.3698 3.82794 14.4675 3.84167 14.5657 3.8561L14.6384 3.36142C14.5383 3.3467 14.4391 3.33277 14.3574 3.32141L14.2885 3.81664ZM14.2222 3.80745C14.2428 3.81029 14.2651 3.81338 14.2885 3.81664L14.3574 3.32141C14.3338 3.31812 14.3114 3.31502 14.2908 3.31217L14.2222 3.80745ZM14.1091 3.79159C14.1325 3.79501 14.1732 3.80065 14.2222 3.80745L14.2908 3.31217C14.2406 3.30521 14.2025 3.29994 14.1817 3.29688L14.1091 3.79159ZM11.2479 3.10429C12.3759 3.51593 13.4854 3.70007 14.1091 3.79159L14.1817 3.29688C13.5674 3.20674 12.4984 3.02838 11.4193 2.63459L11.2479 3.10429ZM9.61619 2.42336C10.0319 2.62692 10.3051 2.76026 11.2479 3.10429L11.4193 2.63459C10.4938 2.29688 10.2368 2.17053 9.83609 1.97431L9.61619 2.42336ZM9.39216 2.31422C9.47338 2.35342 9.54654 2.38925 9.61619 2.42336L9.83609 1.97431C9.76653 1.94025 9.69217 1.90383 9.60949 1.86393L9.39216 2.31422ZM9.38752 2.31198L9.39217 2.31423L9.60948 1.86392L9.60483 1.86168L9.38752 2.31198ZM9.80711 1.52012L8.6189 0.871394L8.3793 1.31025L9.56751 1.95897L9.80711 1.52012ZM1.11285 3.81053L1.11338 3.81692L1.61167 3.77564L1.61114 3.76925L1.11285 3.81053ZM8.37929 0.871398L7.19109 1.52017L7.43071 1.95901L8.61891 1.31024L8.37929 0.871398ZM7.62185 2.30629L8.61891 1.76189L8.3793 1.32304L7.38224 1.86745L7.62185 2.30629ZM8.37931 1.76189L9.37638 2.30626L9.61598 1.86741L8.61891 1.32304L8.37931 1.76189Z" fill="#01052A" mask="url(#path-1-outside-1_1335_238)"/>
</g>
<path d="M14.8921 2.42676H17L14.8921 4.71267H11.9412V15.4686L9.83329 17.7545V4.71267H9.83314V2.42676H14.8921Z" fill="#01052A"/>
<path d="M2.10789 2.42676H0L2.10789 4.71267H5.05882V15.4686L7.16671 17.7545V4.71267H7.16686V2.42676H2.10789Z" fill="#01052A"/>
</svg>
